# File created by Blade
# Date/Time:  Thu Sep 25 14:26:36 2014
# Frame Rate: 120.000 fps
#------------------------------------------------------
:FULLY-SPECIFIED
:DEGREES
1660
root -0.564740 28.058700 -1.643469 -10.674101 86.480410 82.335033
Spine -49.330855 2.487888 -1.809685
Head -106.919712 -1.457900 1.919067
LeftShoulder -31.938043 2.652355 37.751127
LeftArm 140.330168 -60.975285 -135.141467
LeftForeArm 39.993225 0.000000 55.550073
LeftHand -36.472987 -0.000000 116.816281
LeftHandThumb1 -26.253704 0.000000 33.147579
RightShoulder -37.354247 25.483278 -61.125630
RightArm 220.678696 110.604012 226.048160
RightForeArm -49.800384 -0.000000 70.680586
RightHand -14.096556 -0.000000 -75.624437
RightHandThumb1 -24.326973 -0.000000 -32.862282
LeftUpLeg 37.936456 -0.489077 23.590107
LeftLeg 75.919801 -0.000000 -0.000000
LeftFoot 22.078221 19.599387 -20.764330
LeftToeBase -45.737373 -0.000000 0.000000
RightUpLeg 33.328898 3.465827 -24.585085
RightLeg 78.477452 -0.000000 -0.000000
RightFoot 33.234607 -15.053206 -3.155154
RightToeBase -47.886018 -0.000000 0.000000
1661
root -0.502393 28.047801 -1.641743 -10.348906 86.585818 82.714955
Spine -49.178939 2.333791 -1.973012
Head -106.631368 -1.368007 2.092940
LeftShoulder -31.970060 3.006819 37.998170
LeftArm 140.302386 -60.795339 -135.566078
LeftForeArm 39.972041 -0.000000 55.823988
LeftHand -36.453214 0.000000 116.924533
LeftHandThumb1 -26.253704 0.000000 33.147579
RightShoulder -36.997015 25.427931 -60.675196
RightArm 219.878524 110.322257 224.879710
RightForeArm -49.504087 -0.000000 70.589988
RightHand -13.991807 -0.000000 -75.944906
RightHandThumb1 -24.326973 -0.000000 -32.862282
LeftUpLeg 37.962371 -0.673679 23.534848
LeftLeg 76.122356 -0.000000 -0.000000
LeftFoot 21.897657 19.475283 -20.886890
LeftToeBase -45.799058 -0.000000 0.000000
RightUpLeg 33.457691 3.446756 -24.661721
RightLeg 78.628860 -0.000000 -0.000000
RightFoot 33.147418 -14.980090 -3.152016
RightToeBase -48.072864 -0.000000 0.000000
1662
root -0.437241 28.037008 -1.640805 -9.945314 86.669902 83.261038
Spine -48.941458 2.248509 -2.058423
Head -106.307532 -1.159016 1.924029
LeftShoulder -32.057469 3.190105 37.919144
LeftArm 140.200485 -60.510743 -135.483890
LeftForeArm 39.863698 0.000000 55.934118
LeftHand -36.312927 -0.000000 117.044837
LeftHandThumb1 -26.253704 0.000000 33.147579
RightShoulder -37.365968 25.482929 -60.721153
RightArm 221.085395 110.752439 226.129642
RightForeArm -49.839486 -0.000000 70.585839
RightHand -13.952364 0.000000 -75.966846
RightHandThumb1 -24.326973 -0.000000 -32.862282
LeftUpLeg 38.077107 -0.873060 23.474403
LeftLeg 76.333077 -0.000000 -0.000000
LeftFoot 21.712597 19.351648 -21.023343
LeftToeBase -45.754911 -0.000000 0.000000
RightUpLeg 33.659158 3.487386 -24.742588
RightLeg 78.791735 -0.000000 -0.000000
RightFoot 33.016681 -14.927264 -3.129752
RightToeBase -48.126119 -0.000000 0.000000
1663
root -0.370382 28.026563 -1.643196 -10.206667 86.688303 83.098556
Spine -48.728231 2.267455 -2.059647
Head -105.857829 -1.219697 2.034916
LeftShoulder -32.025227 3.472321 37.915072
LeftArm 140.315076 -60.538076 -135.833542
LeftForeArm 39.671950 -0.000000 56.114796
LeftHand -36.203889 -0.000000 117.174313
LeftHandThumb1 -26.253704 0.000000 33.147579
RightShoulder -37.449453 25.536030 -60.806377
RightArm 220.957108 110.911838 226.017297
RightForeArm -49.898369 -0.000000 70.587737
RightHand -13.885075 -0.000000 -76.067021
RightHandThumb1 -24.326973 -0.000000 -32.862282
LeftUpLeg 38.198128 -1.004508 23.464171
LeftLeg 76.526251 -0.000000 -0.000000
LeftFoot 21.541271 19.219535 -21.167041
LeftToeBase -45.833531 -0.000000 0.000000
RightUpLeg 33.792230 3.584760 -24.770481
RightLeg 78.944378 -0.000000 -0.000000
RightFoot 32.934671 -14.989782 -2.732312
RightToeBase -48.893448 -0.000000 0.000000
